HIERARCHY
ROOT root
{
	OFFSET	0	13.1	24.9
	CHANNELS 6  Xposition Yposition Zposition Xrotation Yrotation Zrotation
	JOINT spine_1
	{
		OFFSET	0	9.99999	0
		CHANNELS 3  Xrotation Yrotation Zrotation
		JOINT spine_2
		{
			OFFSET	0	112	-10
			CHANNELS 3  Xrotation Yrotation Zrotation
			JOINT spine_3
			{
				OFFSET	0	206.5	19.3
				CHANNELS 3  Xrotation Yrotation Zrotation
				JOINT spine_4
				{
					OFFSET	0	110.4	14.6
					CHANNELS 3  Xrotation Yrotation Zrotation
					JOINT neck_1
					{
						OFFSET	0	71.8	-50.3
						CHANNELS 3  Xrotation Yrotation Zrotation
						JOINT neck_2
						{
							OFFSET	0	86.2	-25.8
							CHANNELS 3  Xrotation Yrotation Zrotation
							JOINT head_ee
							{
								OFFSET	0	179.8	-8.7
								CHANNELS 3  Xrotation Yrotation Zrotation
								End Site
								{
									OFFSET	1	0	0
								}
							}
						}
					}
					JOINT left_clavicle
					{
						OFFSET	-43.2	22.4	-70.8
						CHANNELS 3  Xrotation Yrotation Zrotation
						JOINT left_shoulder
						{
							OFFSET	-93.9	-5.79999	48.7
							CHANNELS 3  Xrotation Yrotation Zrotation
							JOINT left_elbow
							{
								OFFSET	-291.4	-30.8	15.2
								CHANNELS 3  Xrotation Yrotation Zrotation
								JOINT left_lowarm_twist
								{
									OFFSET	-110.7	-3.89999	13.6
									CHANNELS 3  Xrotation Yrotation Zrotation
									JOINT left_hand
									{
										OFFSET	-110.7	-3.89999	13.6
										CHANNELS 3  Xrotation Yrotation Zrotation
										JOINT left_ee
										{
											OFFSET	-80.8	-5.10001	12.1
											CHANNELS 3  Xrotation Yrotation Zrotation
											End Site
											{
												OFFSET	1	0	0
											}
										}
									}
								}
							}
						}
					}
					JOINT right_clavicle
					{
						OFFSET	43.2	22.4	-70.8
						CHANNELS 3  Xrotation Yrotation Zrotation
						JOINT right_shoulder
						{
							OFFSET	93.9	-5.79999	48.7
							CHANNELS 3  Xrotation Yrotation Zrotation
							JOINT right_elbow
							{
								OFFSET	291.4	-30.8	15.2
								CHANNELS 3  Xrotation Yrotation Zrotation
								JOINT right_lowarm_twist
								{
									OFFSET	110.7	-3.89999	13.6
									CHANNELS 3  Xrotation Yrotation Zrotation
									JOINT right_hand
									{
										OFFSET	110.7	-3.89999	13.6
										CHANNELS 3  Xrotation Yrotation Zrotation
										JOINT right_ee
										{
											OFFSET	80.8	-5.10001	12.1
											CHANNELS 3  Xrotation Yrotation Zrotation
											End Site
											{
												OFFSET	1	0	0
											}
										}
									}
								}
							}
						}
					}
				}
			}
		}
	}
	JOINT left_hip
	{
		OFFSET	-82.8	-127.5	0.300001
		CHANNELS 3  Xrotation Yrotation Zrotation
		JOINT left_knee
		{
			OFFSET	-28.2	-396.7	2.2
			CHANNELS 3  Xrotation Yrotation Zrotation
			JOINT left_ankle
			{
				OFFSET	-11.7	-411.3	35.4
				CHANNELS 3  Xrotation Yrotation Zrotation
				JOINT left_toes
				{
					OFFSET	0	-60	-88.6
					CHANNELS 3  Xrotation Yrotation Zrotation
					JOINT left_foot_ee
					{
						OFFSET	-22.5	-16.5	-42.2
						CHANNELS 3  Xrotation Yrotation Zrotation
						End Site
						{
							OFFSET	1	0	0
						}
					}
				}
			}
		}
	}
	JOINT right_hip
	{
		OFFSET	82.8	-127.5	0.300001
		CHANNELS 3  Xrotation Yrotation Zrotation
		JOINT right_knee
		{
			OFFSET	28.2	-396.7	2.2
			CHANNELS 3  Xrotation Yrotation Zrotation
			JOINT right_ankle
			{
				OFFSET	11.7	-411.3	35.4
				CHANNELS 3  Xrotation Yrotation Zrotation
				JOINT right_toes
				{
					OFFSET	0	-60	-88.6
					CHANNELS 3  Xrotation Yrotation Zrotation
					JOINT right_foot_ee
					{
						OFFSET	22.5	-16.5	-42.2
						CHANNELS 3  Xrotation Yrotation Zrotation
						End Site
						{
							OFFSET	1	0	0
						}
					}
				}
			}
		}
	}
}
MOTION
Frames: 6
Frame Time: 0.02
2800.94 716.97 -1473.77 22.6200599773 72.9221274018 -22.3855952777 -1.74968 -0.0372895 -0.249285 -1.74965 -0.0213513 -0.251153 -1.74952 0.0395306 -0.248939 -1.74961 -0.000280671 -0.252058 -8.86543 3.93867 3.11485 -8.84571 5.21789 3.97099 -0.0 0.0 -0.0 4.79372 1.55219 9.31175 14.9672 -25.5553 56.7662 2.20429 -47.5103 0.970243 -85.2083 -8.47796 5.17942 -2.36387 19.4112 -6.29496 -0.0 0.0 -0.0 4.21927 7.50743 -7.72708 -23.1399 4.64255 -70.8887 0.640336 17.5993 -0.0991264 57.9835 1.59773 6.91882 -5.06555 -26.7224 17.8293 0.0 0.0 0.0 -24.4375 12.0113 5.35576 -3.24575 0.119964 0.483608 40.6412 2.89618 -4.91577 -30.26 0.0 0.0 -0.0 0.0 -0.0 26.6718 10.504 -5.30547 -12.6091 -0.310476 -1.90624 41.2503 -11.2529 4.9956 19.3994 -0.0 -0.0 0.0 0.0 0.0 
2726.27929608 728.624 -1499.25661388 27.9875371371 75.8291063553 -27.6510313937 -1.7417 -0.0164538 -0.532022 -1.74154 0.017433 -0.531991 -1.74157 0.144496 -0.512289 -1.74193 0.0617769 -0.52868 -5.89326 4.0372 2.86489 -5.87123 5.34109 3.64248 -0.0 0.0 -0.0 3.37251 2.06788 6.62222 7.11004 -23.711 61.5402 1.53412 -37.2308 0.516775 -83.2559 -8.23322 5.22408 -1.79157 17.0905 -3.97397 -0.0 0.0 -0.0 5.68198 10.2467 -10.5993 -16.6958 6.78406 -69.4559 0.631253 17.3648 -0.0963979 57.4467 1.55196 6.86746 -5.10475 -28.128 17.0208 0.0 0.0 0.0 -21.6003 10.2175 3.3753 -13.7027 0.317498 2.07389 27.788 2.49831 -3.65534 -30.2663 0.0 0.0 -0.0 0.0 -0.0 21.4231 11.4772 -7.20271 -11.7219 -0.30243 -1.77037 41.1078 -7.67228 4.95839 21.3483 -0.0 -0.0 0.0 0.0 0.0 
2726.85706035 728.624 -1500.89021846 25.8215939699 74.7066394261 -25.4115889713 -1.7417 -0.0164538 -0.532022 -1.74154 0.017433 -0.531991 -1.74157 0.144496 -0.512289 -1.74193 0.0617769 -0.52868 -5.89326 4.0372 2.86489 -5.87123 5.34109 3.64248 -0.0 0.0 -0.0 3.37251 2.06788 6.62222 7.11004 -23.711 61.5402 1.53412 -37.2308 0.516775 -83.2559 -8.23322 5.22408 -1.79157 17.0905 -3.97397 -0.0 0.0 -0.0 5.68198 10.2467 -10.5993 -16.6958 6.78406 -69.4559 0.631253 17.3648 -0.0963979 57.4467 1.55196 6.86746 -5.10475 -28.128 17.0208 0.0 0.0 0.0 -21.6003 10.2175 3.3753 -13.7027 0.317498 2.07389 27.788 2.49831 -3.65534 -30.2663 0.0 0.0 -0.0 0.0 -0.0 21.4231 11.4772 -7.20271 -11.7219 -0.30243 -1.77037 41.1078 -7.67228 4.95839 21.3483 -0.0 -0.0 0.0 0.0 0.0 
2727.30235147 728.624 -1502.07697643 24.4318003277 73.8731028875 -23.9679071528 -1.7417 -0.0164538 -0.532022 -1.74154 0.017433 -0.531991 -1.74157 0.144496 -0.512289 -1.74193 0.0617769 -0.52868 -5.89326 4.0372 2.86489 -5.87123 5.34109 3.64248 -0.0 0.0 -0.0 3.37251 2.06788 6.62222 7.11004 -23.711 61.5402 1.53412 -37.2308 0.516775 -83.2559 -8.23322 5.22408 -1.79157 17.0905 -3.97397 -0.0 0.0 -0.0 5.68198 10.2467 -10.5993 -16.6958 6.78406 -69.4559 0.631253 17.3648 -0.0963979 57.4467 1.55196 6.86746 -5.10475 -28.128 17.0208 0.0 0.0 0.0 -21.6003 10.2175 3.3753 -13.7027 0.317498 2.07389 27.788 2.49831 -3.65534 -30.2663 0.0 0.0 -0.0 0.0 -0.0 21.4231 11.4772 -7.20271 -11.7219 -0.30243 -1.77037 41.1078 -7.67228 4.95839 21.3483 -0.0 -0.0 0.0 0.0 0.0 
2709.64662899 730.527 -1505.92427061 24.9911348097 74.0605698584 -24.3758305206 -1.84712 -0.110249 -0.688199 -1.84686 -0.0662345 -0.693819 -1.84579 0.103327 -0.689272 -1.84645 -0.00682428 -0.69694 -6.08697 4.07883 4.44263 -6.03518 4.27053 5.24532 -0.0 0.0 -0.0 2.91892 2.95698 5.81924 5.55656 -23.2945 63.8537 1.37084 -34.1775 0.421447 -82.4596 -8.13296 5.23987 -1.59836 17.7714 -2.47796 -0.0 0.0 -0.0 6.02534 11.2168 -11.2687 -14.6766 6.77033 -68.6841 0.628101 17.2833 -0.0954592 57.7063 1.57404 6.89235 -5.19131 -28.365 17.3419 0.0 0.0 0.0 -20.2468 9.75482 3.5753 -17.099 0.318894 2.59491 26.6852 6.66152 -3.52357 -30.1184 0.0 0.0 -0.0 0.0 -0.0 20.2121 11.6591 -8.07969 -11.3573 -0.298512 -1.71456 40.753 -6.04802 4.92337 22.4142 -0.0 -0.0 0.0 0.0 0.0 
2684.81574871 733.961 -1510.56007691 26.2134521382 74.198173312 -26.3980607085 -1.89931 0.0639882 -0.464646 -1.8992 0.0934249 -0.459633 -1.89988 0.20209 -0.423262 -1.9001 0.132708 -0.449866 -6.23703 4.70302 5.90952 -6.14464 4.36201 6.84097 -0.0 0.0 -0.0 2.21682 2.43522 4.46234 2.40923 -24.3583 65.3456 1.25167 -31.7992 0.35655 -81.4665 -8.00758 5.25759 -1.36407 15.1834 -2.2351 -0.0 0.0 -0.0 6.52868 11.9585 -12.2955 -11.1573 8.29451 -67.3786 0.592826 16.366 -0.0852489 56.6398 1.48408 6.78945 -5.54303 -29.0285 18.8568 0.0 0.0 0.0 -17.7407 9.20757 3.39678 -24.6097 0.212512 3.74165 26.1021 8.18457 -3.45879 -31.0573 0.0 0.0 -0.0 0.0 -0.0 17.708 12.7131 -7.98606 -11.8468 -0.303689 -1.78948 40.3774 -3.85312 4.89114 24.7016 -0.0 -0.0 0.0 0.0 0.0 
